<?xml version="1.0" encoding="utf-8"?><!-- Uploaded to: SVG Repo, www.svgrepo.com, Generator: SVG Repo Mixer Tools -->
<svg width="800px" height="800px" viewBox="0 0 24 24" fill="none" xmlns="http://www.w3.org/2000/svg">
<path d="M11 11C11 10.4477 11.4477 10 12 10C12.5523 10 13 10.4477 13 11V13H15C15.5523 13 16 13.4477 16 14C16 14.5523 15.5523 15 15 15H13V17C13 17.5523 12.5523 18 12 18C11.4477 18 11 17.5523 11 17V15H9.00002C8.44773 15 8.00002 14.5523 8.00002 14C8.00002 13.4477 8.44773 13 9.00002 13H11V11Z" fill="#0F0F0F"/>
<path fill-rule="evenodd" clip-rule="evenodd" d="M10.5766 1.54273C11.3481 0.712021 12.6514 0.711988 13.4228 1.54267C14.3666 2.55889 16.1085 4.53043 17.6206 6.77875C19.1294 9.02208 20.5307 11.5774 20.5058 14.3527C20.5036 14.5982 20.4906 14.9427 20.4477 15.3536C20.3627 16.17 20.1573 17.2781 19.6661 18.4009C19.1727 19.5286 18.3809 20.6923 17.1178 21.5709C15.8489 22.4536 14.1739 23 11.9997 23C9.82555 23 8.15055 22.4536 6.88176 21.5709C5.61871 20.6923 4.82696 19.5285 4.33364 18.4008C3.84247 17.278 3.6372 16.17 3.5522 15.3536C3.50942 14.9426 3.49636 14.5981 3.49418 14.3526C3.46955 11.5773 4.87048 9.02222 6.37919 6.77881C7.89119 4.5305 9.6329 2.55896 10.5766 1.54273ZM11.9998 2.94942C11.0798 3.94302 9.44579 5.80274 8.0388 7.89491C6.76472 9.78944 5.47323 11.9806 5.49411 14.3349C5.49581 14.5269 5.50616 14.8074 5.54145 15.1465C5.61262 15.8301 5.78224 16.722 6.16599 17.5992C6.54757 18.4715 7.13074 19.3078 8.0239 19.9291C8.91132 20.5465 10.1738 21 11.9997 21C13.8256 21 15.0882 20.5465 15.9757 19.9291C16.8689 19.3078 17.4521 18.4715 17.8338 17.5992C18.2176 16.722 18.3873 15.83 18.4585 15.1464C18.4938 14.8074 18.5042 14.5268 18.5059 14.3348C18.5269 11.9805 17.2351 9.78932 15.961 7.89491C14.5539 5.80273 12.9198 3.94301 11.9998 2.94942Z" fill="#0F0F0F"/>
</svg>