<svg xmlns="http://www.w3.org/2000/svg" viewBox="0 0 100 125" x="0px" y="0px"><path d="M87.49,16.64c-6.31-7.67-15.46-11.65-24.67-11.65-7.14,0-14.32,2.38-20.26,7.27-5.33,4.38-8.87,10.14-10.53,16.33,.54,1.39,.95,2.91,1.3,4.46,1.68,7.59,4.82,10.62,8.46,13.53l.58,.47c4.45,3.54,16.72,13.32,22.66,21.71,3.1-.21,6.17-.87,9.13-1.99-.61-2.31-1.36-3.87-1.46-4.07-.31-.62-.16-1.37,.37-1.82,.28-.23,.62-.35,.97-.35,.31,0,.63,.1,.89,.29,.16,.12,1.88,1.43,3.52,3.95,1.62-.91,3.18-1.98,4.67-3.2,13.62-11.2,15.58-31.32,4.38-44.93Zm-7.33,26.43c0,.41-.34,.75-.75,.75h-9.69v9.68c0,.41-.34,.75-.75,.75h-12.28c-.41,0-.75-.34-.75-.75v-9.68h-9.68c-.41,0-.75-.34-.75-.75v-12.3c0-.41,.34-.75,.75-.75h9.68v-9.68c0-.41,.34-.75,.75-.75h12.28c.41,0,.75,.34,.75,.75v9.68h9.69c.41,0,.75,.34,.75,.75v12.3Z"/><path d="M68.22,30.77v-9.68h-10.78v9.68c0,.41-.34,.75-.75,.75h-9.68v10.8h9.68c.41,0,.75,.34,.75,.75v9.68h10.78v-9.68c0-.41,.34-.75,.75-.75h9.69v-10.8h-9.69c-.41,0-.75-.34-.75-.75Z"/><path d="M79.21,81.26c3.38-12.89-5.18-19.24-5.18-19.24,0,0,8.98,17.86-7.93,27.37,0,0,4.02-6.98-.11-16.06-4.12-9.09-21.45-22.62-25.15-25.58-3.61-2.89-7.01-6.09-8.85-13.8-.88,.79-.6,2.97-.31,5.1,.38,2.83,.78,5.75-1.02,7.34-1.15,1.01-2.4,1.54-3.54,1.54-.56,0-1.09-.12-1.58-.38-.99-.51-2.59-2.01-2.14-6.23,.58-5.48-2.5-8.6-2.63-8.73-.29-.29-.3-.77,0-1.06,.29-.29,.76-.3,1.06-.01,.15,.15,3.74,3.74,3.08,9.96-.26,2.44,.23,4.16,1.34,4.74,.92,.47,2.23,.1,3.44-.96,1.2-1.05,.86-3.57,.53-6.01-.38-2.81-.77-5.71,1.31-6.8,.04-.02,.08-.02,.12-.04-1.42-5.81-3.55-8.81-8.35-8.81-1.33,0-2.86,.23-4.63,.69-8.56,2.22-.76,6.72-13.65,12.11,0,0,2.02,5.01,4.56,5.64,2.54,.63,6.49,.55,7.82,1.06,1.1,.42,1.69,1.48,.42,5.92-1.27,4.44-.53,11.1,3.8,19.02s4.83,15.85,3.84,23.04c0,0-3.42,.85-3.42,3.91h8.35s.11-3.59,.32-4.65,2.52-11.82,2.52-11.82l9.89,9.03c.04-2.03-1.09-4.57-1.62-5.51-2.15-4.6-2.33-8.22-.54-10.82,3.2-4.65,11.44-4.11,11.79-4.09,.41,.03,.72,.39,.69,.8-.03,.41-.37,.73-.8,.69-.08,0-7.73-.5-10.45,3.45-1.46,2.13-1.25,5.25,.64,9.28,.08,.14,2.51,4.55,1.59,7.66-.31,1.05-.96,1.84-1.92,2.35-1.65,.88-3.42,.76-4.83,.67-1.1-.07-2.04-.13-2.44,.29-.29,.3-.42,.96-.39,1.91h16.42s5.62-.8,7.79-4.25c.96-1.53,1.08-3.39,.38-5.55-.13-.39,.09-.82,.48-.95,.39-.13,.82,.09,.95,.48,.85,2.6,.67,4.89-.54,6.82-1.41,2.25-3.94,3.51-5.95,4.2h8.58s12.89-.85,16.28-13.74Z"/><text x="0" y="115" fill="#000000" font-size="5px" font-weight="bold" font-family="'Helvetica Neue', Helvetica, Arial-Unicode, Arial, Sans-serif">Created by Lars Meiertoberens</text><text x="0" y="120" fill="#000000" font-size="5px" font-weight="bold" font-family="'Helvetica Neue', Helvetica, Arial-Unicode, Arial, Sans-serif">from the Noun Project</text></svg>